<?xml version="1.0" encoding="UTF-8"?>
<!DOCTYPE svg PUBLIC "-//W3C//DTD SVG 1.1//EN" "http://www.w3.org/Graphics/SVG/1.1/DTD/svg11.dtd">
<svg xmlns="http://www.w3.org/2000/svg" version="1.1" width="500px" height="500px" style="shape-rendering:geometricPrecision; text-rendering:geometricPrecision; image-rendering:optimizeQuality; fill-rule:evenodd; clip-rule:evenodd" xmlns:xlink="http://www.w3.org/1999/xlink">
<g><path style="opacity:0.004" fill="#fefffe" d="M 176.5,12.5 C 177.833,13.1667 177.833,13.1667 176.5,12.5 Z"/></g>
<g><path style="opacity:0.004" fill="#fefffe" d="M 413.5,14.5 C 414.833,15.1667 414.833,15.1667 413.5,14.5 Z"/></g>
<g><path style="opacity:0.004" fill="#fefffe" d="M 499.5,33.5 C 499.5,33.8333 499.5,34.1667 499.5,34.5C 498.83,34.0187 498.83,33.6853 499.5,33.5 Z"/></g>
<g><path style="opacity:0.004" fill="#fefffe" d="M 45.5,44.5 C 46.8333,45.1667 46.8333,45.1667 45.5,44.5 Z"/></g>
<g><path style="opacity:0.004" fill="#fefffe" d="M 50.5,56.5 C 51.8333,57.1667 51.8333,57.1667 50.5,56.5 Z"/></g>
<g><path style="opacity:0.004" fill="#fefffe" d="M 145.5,57.5 C 146.833,58.1667 146.833,58.1667 145.5,57.5 Z"/></g>
<g><path style="opacity:0.004" fill="#fefffe" d="M 60.5,66.5 C 61.8333,67.1667 61.8333,67.1667 60.5,66.5 Z"/></g>
<g><path style="opacity:0.004" fill="#fefffe" d="M 452.5,72.5 C 453.833,73.1667 453.833,73.1667 452.5,72.5 Z"/></g>
<g><path style="opacity:0.004" fill="#fefffe" d="M 494.5,74.5 C 495.833,75.1667 495.833,75.1667 494.5,74.5 Z"/></g>
<g><path style="opacity:0.004" fill="#fefffe" d="M 247.5,84.5 C 248.833,85.1667 248.833,85.1667 247.5,84.5 Z"/></g>
<g><path style="opacity:0.004" fill="#fefffe" d="M 128.5,85.5 C 129.833,86.1667 129.833,86.1667 128.5,85.5 Z"/></g>
<g><path style="opacity:0.004" fill="#fefffe" d="M 476.5,90.5 C 477.833,91.1667 477.833,91.1667 476.5,90.5 Z"/></g>
<g><path style="opacity:0.004" fill="#fefffe" d="M 465.5,106.5 C 466.833,107.167 466.833,107.167 465.5,106.5 Z"/></g>
<g><path style="opacity:0.004" fill="#fefffe" d="M 101.5,113.5 C 102.833,114.167 102.833,114.167 101.5,113.5 Z"/></g>
<g><path style="opacity:0.004" fill="#fefffe" d="M 389.5,120.5 C 390.833,121.167 390.833,121.167 389.5,120.5 Z"/></g>
<g><path style="opacity:0.004" fill="#fefffe" d="M 6.5,127.5 C 7.83333,128.167 7.83333,128.167 6.5,127.5 Z"/></g>
<g><path style="opacity:0.004" fill="#fefffe" d="M 266.5,133.5 C 267.833,134.167 267.833,134.167 266.5,133.5 Z"/></g>
<g><path style="opacity:0.004" fill="#fefffe" d="M 439.5,134.5 C 440.833,135.167 440.833,135.167 439.5,134.5 Z"/></g>
<g><path style="opacity:0.004" fill="#fefffe" d="M 432.5,136.5 C 433.833,137.167 433.833,137.167 432.5,136.5 Z"/></g>
<g><path style="opacity:0.004" fill="#fefffe" d="M 255.5,152.5 C 256.833,153.167 256.833,153.167 255.5,152.5 Z"/></g>
<g><path style="opacity:0.004" fill="#fefffe" d="M 446.5,153.5 C 447.833,154.167 447.833,154.167 446.5,153.5 Z"/></g>
<g><path style="opacity:0.004" fill="#fefffe" d="M 362.5,174.5 C 363.833,175.167 363.833,175.167 362.5,174.5 Z"/></g>
<g><path style="opacity:0.004" fill="#fefffe" d="M 365.5,177.5 C 366.833,178.167 366.833,178.167 365.5,177.5 Z"/></g>
<g><path style="opacity:0.004" fill="#fefffe" d="M 4.5,185.5 C 5.83333,186.167 5.83333,186.167 4.5,185.5 Z"/></g>
<g><path style="opacity:0.004" fill="#fefffe" d="M 1.5,189.5 C 2.83333,190.167 2.83333,190.167 1.5,189.5 Z"/></g>
<g><path style="opacity:0.004" fill="#fefffe" d="M 41.5,195.5 C 42.8333,196.167 42.8333,196.167 41.5,195.5 Z"/></g>
<g><path style="opacity:0.834" fill="#040404" d="M 202.5,199.5 C 203.5,199.5 204.5,199.5 205.5,199.5C 205.5,206.833 205.5,214.167 205.5,221.5C 202.786,221.75 200.119,221.917 197.5,222C 195.277,221.348 194.11,219.848 194,217.5C 191.773,209.565 194.606,205.565 202.5,205.5C 202.5,203.5 202.5,201.5 202.5,199.5 Z M 198.5,208.5 C 199.822,208.33 200.989,208.663 202,209.5C 203.116,213.288 202.45,216.622 200,219.5C 197.258,216.221 196.758,212.554 198.5,208.5 Z"/></g>
<g><path style="opacity:0.617" fill="#040404" d="M 300.5,199.5 C 305.402,200.554 305.236,202.221 300,204.5C 299.5,204.167 299,203.833 298.5,203.5C 299.18,202.14 299.847,200.807 300.5,199.5 Z"/></g>
<g><path style="opacity:0.685" fill="#020202" d="M 330.5,199.5 C 331.833,199.5 333.167,199.5 334.5,199.5C 334.5,206.833 334.5,214.167 334.5,221.5C 323.058,223.54 319.225,218.874 323,207.5C 325.135,205.722 327.635,205.055 330.5,205.5C 330.5,203.5 330.5,201.5 330.5,199.5 Z M 326.5,208.5 C 329.95,208.573 331.283,210.406 330.5,214C 330.437,216.281 329.603,218.114 328,219.5C 325.294,216.192 324.794,212.525 326.5,208.5 Z"/></g>
<g><path style="opacity:0.743" fill="#050303" d="M 138.5,200.5 C 139.5,200.5 140.5,200.5 141.5,200.5C 142.307,206.464 142.64,212.464 142.5,218.5C 145.167,218.5 147.833,218.5 150.5,218.5C 150.5,219.5 150.5,220.5 150.5,221.5C 146.5,221.5 142.5,221.5 138.5,221.5C 138.5,214.5 138.5,207.5 138.5,200.5 Z"/></g>
<g><path style="opacity:0.818" fill="#040404" d="M 239.5,200.5 C 240.833,200.5 242.167,200.5 243.5,200.5C 243.5,203.5 243.5,206.5 243.5,209.5C 245.833,209.5 248.167,209.5 250.5,209.5C 250.5,206.5 250.5,203.5 250.5,200.5C 251.833,200.5 253.167,200.5 254.5,200.5C 254.5,207.5 254.5,214.5 254.5,221.5C 253.167,221.5 251.833,221.5 250.5,221.5C 250.5,218.5 250.5,215.5 250.5,212.5C 248.167,212.5 245.833,212.5 243.5,212.5C 243.5,215.5 243.5,218.5 243.5,221.5C 242.167,221.5 240.833,221.5 239.5,221.5C 239.5,214.5 239.5,207.5 239.5,200.5 Z"/></g>
<g><path style="opacity:0.004" fill="#fefffe" d="M 87.5,202.5 C 88.8333,203.167 88.8333,203.167 87.5,202.5 Z"/></g>
<g><path style="opacity:0.846" fill="#050505" d="M 179.5,205.5 C 183.106,205.211 186.606,205.544 190,206.5C 191.388,211.372 191.888,216.372 191.5,221.5C 190.167,221.5 188.833,221.5 187.5,221.5C 187.5,217.167 187.5,212.833 187.5,208.5C 186.178,208.33 185.011,208.663 184,209.5C 183.501,213.486 183.334,217.486 183.5,221.5C 182.167,221.5 180.833,221.5 179.5,221.5C 179.5,216.167 179.5,210.833 179.5,205.5 Z"/></g>
<g><path style="opacity:0.747" fill="#040404" d="M 208.5,205.5 C 210.857,205.337 213.19,205.503 215.5,206C 215.957,206.414 216.291,206.914 216.5,207.5C 215.372,208.262 214.205,208.929 213,209.5C 212.501,213.486 212.334,217.486 212.5,221.5C 211.167,221.5 209.833,221.5 208.5,221.5C 208.5,216.167 208.5,210.833 208.5,205.5 Z"/></g>
<g><path style="opacity:0.789" fill="#040404" d="M 220.5,205.5 C 226.788,204.453 230.121,207.12 230.5,213.5C 230.067,221.038 226.4,223.538 219.5,221C 216.567,215.524 216.9,210.357 220.5,205.5 Z M 222.5,208.5 C 225.62,208.874 226.954,210.707 226.5,214C 224.257,221.399 222.257,221.233 220.5,213.5C 220.437,211.486 221.103,209.819 222.5,208.5 Z"/></g>
<g><path style="opacity:0.699" fill="#030303" d="M 339.5,205.5 C 347.148,204.641 349.815,207.808 347.5,215C 344.833,215.333 342.167,215.667 339.5,216C 340.364,217.697 341.697,218.863 343.5,219.5C 345.332,217.043 346.999,217.043 348.5,219.5C 346.451,222.147 343.784,222.981 340.5,222C 338.667,221.5 337.5,220.333 337,218.5C 335.842,213.693 336.676,209.36 339.5,205.5 Z M 341.5,208.5 C 342.5,208.5 343.5,208.5 344.5,208.5C 344.5,209.5 344.5,210.5 344.5,211.5C 341.433,211.879 340.433,210.879 341.5,208.5 Z"/></g>
<g><path style="opacity:0.72" fill="#030303" d="M 350.5,205.5 C 354.167,205.5 357.833,205.5 361.5,205.5C 360.097,210.134 357.764,214.301 354.5,218C 356.81,218.497 359.143,218.663 361.5,218.5C 361.5,219.5 361.5,220.5 361.5,221.5C 357.833,221.5 354.167,221.5 350.5,221.5C 351.528,216.941 353.528,212.775 356.5,209C 354.527,208.505 352.527,208.338 350.5,208.5C 350.5,207.5 350.5,206.5 350.5,205.5 Z"/></g>
<g><path style="opacity:0.708" fill="#030303" d="M 154.5,205.5 C 162.025,204.487 165.025,207.821 163.5,215.5C 160.753,215.187 158.086,215.52 155.5,216.5C 156.167,217.833 157.167,218.833 158.5,219.5C 159.62,218.167 160.953,217.667 162.5,218C 163.833,219 163.833,220 162.5,221C 155.547,224.018 151.881,221.685 151.5,214C 151.622,210.796 152.622,207.963 154.5,205.5 Z M 156.5,208.5 C 158.346,208.222 159.68,208.889 160.5,210.5C 158.833,211.833 157.167,211.833 155.5,210.5C 155.863,209.817 156.196,209.15 156.5,208.5 Z"/></g>
<g><path style="opacity:0.879" fill="#060606" d="M 270.5,205.5 C 273.167,205.5 275.833,205.5 278.5,205.5C 278.5,206.5 278.5,207.5 278.5,208.5C 277.178,208.33 276.011,208.663 275,209.5C 274.501,213.486 274.334,217.486 274.5,221.5C 273.167,221.5 271.833,221.5 270.5,221.5C 270.5,216.167 270.5,210.833 270.5,205.5 Z"/></g>
<g><path style="opacity:0.843" fill="#050505" d="M 279.5,205.5 C 283.106,205.211 286.606,205.544 290,206.5C 291.388,211.372 291.888,216.372 291.5,221.5C 290.167,221.5 288.833,221.5 287.5,221.5C 287.5,217.167 287.5,212.833 287.5,208.5C 286.178,208.33 285.011,208.663 284,209.5C 283.501,213.486 283.334,217.486 283.5,221.5C 282.167,221.5 280.833,221.5 279.5,221.5C 279.5,216.167 279.5,210.833 279.5,205.5 Z"/></g>
<g><path style="opacity:0.762" fill="#050505" d="M 296.5,205.5 C 299.119,205.232 301.619,205.565 304,206.5C 305.388,211.372 305.888,216.372 305.5,221.5C 302.475,221.877 299.475,222.044 296.5,222C 292.981,219.315 292.648,216.315 295.5,213C 297.345,211.872 299.345,211.372 301.5,211.5C 301.5,210.5 301.5,209.5 301.5,208.5C 299.167,209.167 296.833,209.833 294.5,210.5C 294.392,208.486 295.058,206.82 296.5,205.5 Z M 298.5,214.5 C 299.5,214.5 300.5,214.5 301.5,214.5C 301.5,215.833 301.5,217.167 301.5,218.5C 300.167,218.5 298.833,218.5 297.5,218.5C 297.433,217.041 297.766,215.708 298.5,214.5 Z"/></g>
<g><path style="opacity:0.744" fill="#040404" d="M 259.5,205.5 C 267.025,204.487 270.025,207.821 268.5,215.5C 265.753,215.187 263.086,215.52 260.5,216.5C 261.167,217.833 262.167,218.833 263.5,219.5C 264.62,218.167 265.953,217.667 267.5,218C 268.833,219 268.833,220 267.5,221C 260.717,223.701 257.05,221.368 256.5,214C 256.622,210.796 257.622,207.963 259.5,205.5 Z M 261.5,208.5 C 263.346,208.222 264.68,208.889 265.5,210.5C 263.833,211.833 262.167,211.833 260.5,210.5C 260.863,209.817 261.196,209.15 261.5,208.5 Z"/></g>
<g><path style="opacity:0.77" fill="#060606" d="M 308.5,205.5 C 310.71,206.583 312.877,206.583 315,205.5C 316.711,205.439 318.044,206.106 319,207.5C 319.499,212.155 319.666,216.821 319.5,221.5C 318.5,221.5 317.5,221.5 316.5,221.5C 316.665,217.818 316.499,214.152 316,210.5C 315.047,208.408 313.714,208.075 312,209.5C 311.501,213.486 311.334,217.486 311.5,221.5C 310.5,221.5 309.5,221.5 308.5,221.5C 308.5,216.167 308.5,210.833 308.5,205.5 Z"/></g>
<g><path style="opacity:0.004" fill="#fefffe" d="M 85.5,210.5 C 86.8333,211.167 86.8333,211.167 85.5,210.5 Z"/></g>
<g><path style="opacity:0.716" fill="#040404" d="M 168.5,205.5 C 171.119,205.232 173.619,205.565 176,206.5C 177.25,211.42 177.75,216.42 177.5,221.5C 175.116,221.443 172.782,221.777 170.5,222.5C 165.548,221.046 164.381,218.046 167,213.5C 168.897,211.984 171.064,211.317 173.5,211.5C 173.5,210.5 173.5,209.5 173.5,208.5C 170.999,209.826 168.332,210.326 165.5,210C 166.386,208.385 167.386,206.885 168.5,205.5 Z M 170.5,214.5 C 171.5,214.5 172.5,214.5 173.5,214.5C 173.5,215.833 173.5,217.167 173.5,218.5C 172.167,218.5 170.833,218.5 169.5,218.5C 169.433,217.041 169.766,215.708 170.5,214.5 Z"/></g>
<g><path style="opacity:0.004" fill="#fefffe" d="M 55.5,228.5 C 56.8333,229.167 56.8333,229.167 55.5,228.5 Z"/></g>
<g><path style="opacity:0.543" fill="#030303" d="M 178.5,233.5 C 183.741,232.61 186.408,234.777 186.5,240C 186.167,244.932 183.5,246.765 178.5,245.5C 178.5,241.5 178.5,237.5 178.5,233.5 Z M 180.5,235.5 C 181.496,235.414 182.329,235.748 183,236.5C 183.497,238.81 183.663,241.143 183.5,243.5C 182.5,243.5 181.5,243.5 180.5,243.5C 180.5,240.833 180.5,238.167 180.5,235.5 Z"/></g>
<g><path style="opacity:0.488" fill="#010101" d="M 227.5,233.5 C 228.5,233.5 229.5,233.5 230.5,233.5C 230.5,237.5 230.5,241.5 230.5,245.5C 229.5,245.5 228.5,245.5 227.5,245.5C 227.5,241.5 227.5,237.5 227.5,233.5 Z"/></g>
<g><path style="opacity:0.5" fill="#020202" d="M 269.5,232.5 C 272.826,232.967 273.159,234.134 270.5,236C 270.781,239.017 270.781,242.183 270.5,245.5C 269.5,245.5 268.5,245.5 267.5,245.5C 266.121,240.646 266.787,236.313 269.5,232.5 Z"/></g>
<g><path style="opacity:0.497" fill="#050505" d="M 219.5,238.5 C 217.656,240.279 216.99,242.612 217.5,245.5C 216.5,245.5 215.5,245.5 214.5,245.5C 214.535,236.44 213.535,236.44 211.5,245.5C 210.516,242.572 210.183,239.572 210.5,236.5C 214.012,235.945 217.012,236.612 219.5,238.5 Z"/></g>
<g><path style="opacity:0.439" fill="#010101" d="M 258.5,236.5 C 260.288,236.215 261.955,236.548 263.5,237.5C 261.777,239.868 261.11,242.534 261.5,245.5C 260.5,245.5 259.5,245.5 258.5,245.5C 258.5,242.5 258.5,239.5 258.5,236.5 Z"/></g>
<g><path style="opacity:0.486" fill="#030303" d="M 308.5,236.5 C 312.419,235.746 313.753,237.08 312.5,240.5C 310.915,237.728 309.915,237.894 309.5,241C 309.67,243.527 310.67,244.027 312.5,242.5C 313.626,244.506 312.96,245.84 310.5,246.5C 306.04,243.988 305.374,240.654 308.5,236.5 Z"/></g>
<g><path style="opacity:0.782" fill="#040404" d="M 314.5,233.5 C 316.117,234.589 316.95,236.256 317,238.5C 318.185,236.441 319.352,236.274 320.5,238C 320.241,239.261 319.574,240.261 318.5,241C 319.743,242.154 320.743,243.488 321.5,245C 319.112,245.865 317.612,245.032 317,242.5C 316.751,243.624 316.251,244.624 315.5,245.5C 314.509,241.555 314.176,237.555 314.5,233.5 Z"/></g>
<g><path style="opacity:0.51" fill="#040404" d="M 247.5,233.5 C 249.423,237.029 250.089,241.029 249.5,245.5C 242.852,246.827 240.852,244.16 243.5,237.5C 244.689,236.571 246.022,236.238 247.5,236.5C 247.5,235.5 247.5,234.5 247.5,233.5 Z M 245.5,238.5 C 247.561,239.751 247.894,241.418 246.5,243.5C 244.296,242.218 243.962,240.551 245.5,238.5 Z"/></g>
<g><path style="opacity:0.414" fill="#030202" d="M 283.5,233.5 C 284.5,233.5 285.5,233.5 286.5,233.5C 286.5,237.5 286.5,241.5 286.5,245.5C 285.5,245.5 284.5,245.5 283.5,245.5C 283.5,241.5 283.5,237.5 283.5,233.5 Z"/></g>
<g><path style="opacity:0.755" fill="#080808" d="M 300.5,236.5 C 302.144,236.286 303.644,236.62 305,237.5C 305.497,240.146 305.664,242.813 305.5,245.5C 301,247.224 299,245.558 299.5,240.5C 301.103,240.688 302.437,240.188 303.5,239C 302.451,238.508 301.451,238.674 300.5,239.5C 299.438,238.575 299.438,237.575 300.5,236.5 Z M 302.5,241.5 C 303.773,242.077 303.773,242.743 302.5,243.5C 301.537,243.03 301.537,242.363 302.5,241.5 Z"/></g>
<g><path style="opacity:0.766" fill="#090708" d="M 203.5,236.5 C 205.144,236.286 206.644,236.62 208,237.5C 208.497,240.146 208.664,242.813 208.5,245.5C 204,247.224 202,245.558 202.5,240.5C 204.103,240.688 205.437,240.188 206.5,239C 205.451,238.508 204.451,238.674 203.5,239.5C 202.438,238.575 202.438,237.575 203.5,236.5 Z M 205.5,241.5 C 206.773,242.077 206.773,242.743 205.5,243.5C 204.537,243.03 204.537,242.363 205.5,241.5 Z"/></g>
<g><path style="opacity:0.906" fill="#060606" d="M 219.5,238.5 C 221.419,236.478 223.586,236.144 226,237.5C 226.818,240.227 226.652,242.894 225.5,245.5C 220.176,246.496 218.176,244.162 219.5,238.5 Z M 222.5,238.5 C 223.649,238.791 224.316,239.624 224.5,241C 223.706,244.122 222.706,244.122 221.5,241C 221.743,240.098 222.077,239.265 222.5,238.5 Z"/></g>
<g><path style="opacity:0.786" fill="#050505" d="M 231.5,233.5 C 232.496,233.414 233.329,233.748 234,234.5C 234.333,237.167 234.667,239.833 235,242.5C 236.218,240.981 237.718,239.814 239.5,239C 238.451,238.508 237.451,238.674 236.5,239.5C 235.289,238.726 235.289,237.893 236.5,237C 238.112,236.28 239.612,236.446 241,237.5C 241.497,240.146 241.664,242.813 241.5,245.5C 238.452,247.47 236.285,246.804 235,243.5C 234.311,244.357 233.478,245.023 232.5,245.5C 231.509,241.555 231.176,237.555 231.5,233.5 Z M 238.5,241.5 C 239.773,242.077 239.773,242.743 238.5,243.5C 237.537,243.03 237.537,242.363 238.5,241.5 Z"/></g>
<g><path style="opacity:0.563" fill="#040404" d="M 252.5,236.5 C 254.144,236.286 255.644,236.62 257,237.5C 257.818,240.227 257.652,242.894 256.5,245.5C 251.008,246.487 249.175,244.154 251,238.5C 251.717,237.956 252.217,237.289 252.5,236.5 Z M 253.5,238.5 C 254.649,238.791 255.316,239.624 255.5,241C 255.013,244.093 254.013,244.259 252.5,241.5C 253.127,240.583 253.461,239.583 253.5,238.5 Z"/></g>
<g><path style="opacity:0.77" fill="#070607" d="M 280.5,233.5 C 281.794,235.048 282.461,237.048 282.5,239.5C 282.167,241.5 281.833,243.5 281.5,245.5C 280.509,241.555 280.176,237.555 280.5,233.5 Z"/></g>
<g><path style="opacity:0.722" fill="#080707" d="M 272.5,236.5 C 274.062,238.372 275.062,240.705 275.5,243.5C 276.167,241.167 276.833,238.833 277.5,236.5C 278.484,239.428 278.817,242.428 278.5,245.5C 276.669,246.052 275.003,246.052 273.5,245.5C 272.516,242.572 272.183,239.572 272.5,236.5 Z"/></g>
<g><path style="opacity:0.753" fill="#050505" d="M 295.5,234.5 C 297.121,234.787 298.121,235.787 298.5,237.5C 297.227,239.984 297.227,242.484 298.5,245C 297.99,246.826 297.156,246.993 296,245.5C 294.6,243.159 294.1,240.826 294.5,238.5C 293.167,239.833 291.833,239.833 290.5,238.5C 290.167,238.667 289.833,238.833 289.5,239C 294.175,241.15 294.508,243.65 290.5,246.5C 287.264,245.378 286.931,243.878 289.5,242C 287.717,240.933 287.217,239.433 288,237.5C 289.667,236.167 291.333,236.167 293,237.5C 294.417,236.922 295.25,235.922 295.5,234.5 Z"/></g>
<g><path style="opacity:0.585" fill="#060505" d="M 188.5,236.5 C 193.161,235.832 195.161,237.832 194.5,242.5C 195.552,242.649 196.552,242.483 197.5,242C 195.342,240.688 195.009,239.022 196.5,237C 198.641,236.116 200.307,236.616 201.5,238.5C 200.624,239.251 199.624,239.751 198.5,240C 202.438,242.061 202.438,244.227 198.5,246.5C 196.06,244.078 193.726,244.078 191.5,246.5C 190.252,245.96 189.085,245.293 188,244.5C 187.398,241.779 187.565,239.113 188.5,236.5 Z M 190.5,238.5 C 191.773,239.077 191.773,239.743 190.5,240.5C 189.537,240.03 189.537,239.363 190.5,238.5 Z"/></g>
<g><path style="opacity:0.004" fill="#fefffe" d="M 440.5,253.5 C 441.833,254.167 441.833,254.167 440.5,253.5 Z"/></g>
<g><path style="opacity:0.004" fill="#fefffe" d="M 13.5,255.5 C 14.8333,256.167 14.8333,256.167 13.5,255.5 Z"/></g>
<g><path style="opacity:0.004" fill="#fefffe" d="M 349.5,260.5 C 350.833,261.167 350.833,261.167 349.5,260.5 Z"/></g>
<g><path style="opacity:0.004" fill="#fefffe" d="M 255.5,267.5 C 256.833,268.167 256.833,268.167 255.5,267.5 Z"/></g>
<g><path style="opacity:0.004" fill="#fefffe" d="M 110.5,269.5 C 111.833,270.167 111.833,270.167 110.5,269.5 Z"/></g>
<g><path style="opacity:0.004" fill="#fefffe" d="M 443.5,278.5 C 444.833,279.167 444.833,279.167 443.5,278.5 Z"/></g>
<g><path style="opacity:0.004" fill="#fefffe" d="M 113.5,286.5 C 114.833,287.167 114.833,287.167 113.5,286.5 Z"/></g>
<g><path style="opacity:0.004" fill="#fefffe" d="M 468.5,287.5 C 469.833,288.167 469.833,288.167 468.5,287.5 Z"/></g>
<g><path style="opacity:0.004" fill="#fefffe" d="M 125.5,293.5 C 126.833,294.167 126.833,294.167 125.5,293.5 Z"/></g>
<g><path style="opacity:0.004" fill="#fefffe" d="M 265.5,300.5 C 266.833,301.167 266.833,301.167 265.5,300.5 Z"/></g>
<g><path style="opacity:0.004" fill="#fefffe" d="M 482.5,302.5 C 483.833,303.167 483.833,303.167 482.5,302.5 Z"/></g>
<g><path style="opacity:0.004" fill="#fefffe" d="M 393.5,308.5 C 394.833,309.167 394.833,309.167 393.5,308.5 Z"/></g>
<g><path style="opacity:0.004" fill="#fefffe" d="M 322.5,310.5 C 323.833,311.167 323.833,311.167 322.5,310.5 Z"/></g>
<g><path style="opacity:0.004" fill="#fefffe" d="M 75.5,314.5 C 76.8333,315.167 76.8333,315.167 75.5,314.5 Z"/></g>
<g><path style="opacity:0.004" fill="#fefffe" d="M 138.5,316.5 C 139.833,317.167 139.833,317.167 138.5,316.5 Z"/></g>
<g><path style="opacity:0.004" fill="#fefffe" d="M 56.5,318.5 C 57.8333,319.167 57.8333,319.167 56.5,318.5 Z"/></g>
<g><path style="opacity:0.004" fill="#fefffe" d="M 156.5,325.5 C 157.833,326.167 157.833,326.167 156.5,325.5 Z"/></g>
<g><path style="opacity:0.004" fill="#fefffe" d="M 384.5,336.5 C 385.833,337.167 385.833,337.167 384.5,336.5 Z"/></g>
<g><path style="opacity:0.004" fill="#fefffe" d="M 182.5,338.5 C 183.833,339.167 183.833,339.167 182.5,338.5 Z"/></g>
<g><path style="opacity:0.004" fill="#fefffe" d="M 1.5,344.5 C 2.83333,345.167 2.83333,345.167 1.5,344.5 Z"/></g>
<g><path style="opacity:0.004" fill="#fefffe" d="M 149.5,346.5 C 150.833,347.167 150.833,347.167 149.5,346.5 Z"/></g>
<g><path style="opacity:0.004" fill="#fefffe" d="M 196.5,360.5 C 197.833,361.167 197.833,361.167 196.5,360.5 Z"/></g>
<g><path style="opacity:0.004" fill="#fefffe" d="M 408.5,365.5 C 409.833,366.167 409.833,366.167 408.5,365.5 Z"/></g>
<g><path style="opacity:0.004" fill="#fefffe" d="M 168.5,381.5 C 169.833,382.167 169.833,382.167 168.5,381.5 Z"/></g>
<g><path style="opacity:0.004" fill="#fefffe" d="M 218.5,395.5 C 219.833,396.167 219.833,396.167 218.5,395.5 Z"/></g>
<g><path style="opacity:0.004" fill="#fefffe" d="M 382.5,399.5 C 383.833,400.167 383.833,400.167 382.5,399.5 Z"/></g>
<g><path style="opacity:0.004" fill="#fefffe" d="M 266.5,405.5 C 267.833,406.167 267.833,406.167 266.5,405.5 Z"/></g>
<g><path style="opacity:0.004" fill="#fefffe" d="M 450.5,409.5 C 451.833,410.167 451.833,410.167 450.5,409.5 Z"/></g>
<g><path style="opacity:0.004" fill="#fefffe" d="M 197.5,410.5 C 198.833,411.167 198.833,411.167 197.5,410.5 Z"/></g>
<g><path style="opacity:0.004" fill="#fefffe" d="M 104.5,413.5 C 105.833,414.167 105.833,414.167 104.5,413.5 Z"/></g>
<g><path style="opacity:0.004" fill="#fefffe" d="M 445.5,414.5 C 446.833,415.167 446.833,415.167 445.5,414.5 Z"/></g>
<g><path style="opacity:0.004" fill="#fefffe" d="M 167.5,415.5 C 168.833,416.167 168.833,416.167 167.5,415.5 Z"/></g>
<g><path style="opacity:0.004" fill="#fefffe" d="M 12.5,422.5 C 13.8333,423.167 13.8333,423.167 12.5,422.5 Z"/></g>
<g><path style="opacity:0.004" fill="#fefffe" d="M 212.5,427.5 C 213.833,428.167 213.833,428.167 212.5,427.5 Z"/></g>
<g><path style="opacity:0.004" fill="#fefffe" d="M 395.5,457.5 C 396.833,458.167 396.833,458.167 395.5,457.5 Z"/></g>
<g><path style="opacity:0.004" fill="#fefffe" d="M 411.5,458.5 C 412.833,459.167 412.833,459.167 411.5,458.5 Z"/></g>
<g><path style="opacity:0.004" fill="#fefffe" d="M 180.5,468.5 C 181.833,469.167 181.833,469.167 180.5,468.5 Z"/></g>
<g><path style="opacity:0.004" fill="#fefffe" d="M 209.5,470.5 C 210.833,471.167 210.833,471.167 209.5,470.5 Z"/></g>
<g><path style="opacity:0.004" fill="#fefffe" d="M 427.5,470.5 C 428.833,471.167 428.833,471.167 427.5,470.5 Z"/></g>
<g><path style="opacity:0.004" fill="#fefffe" d="M 322.5,473.5 C 323.833,474.167 323.833,474.167 322.5,473.5 Z"/></g>
<g><path style="opacity:0.004" fill="#fefffe" d="M 272.5,474.5 C 273.833,475.167 273.833,475.167 272.5,474.5 Z"/></g>
<g><path style="opacity:0.004" fill="#fefffe" d="M 258.5,476.5 C 259.833,477.167 259.833,477.167 258.5,476.5 Z"/></g>
<g><path style="opacity:0.004" fill="#fefffe" d="M 354.5,484.5 C 355.833,485.167 355.833,485.167 354.5,484.5 Z"/></g>
<g><path style="opacity:0.004" fill="#fefffe" d="M 463.5,484.5 C 464.833,485.167 464.833,485.167 463.5,484.5 Z"/></g>
<g><path style="opacity:0.004" fill="#fefffe" d="M 361.5,489.5 C 362.833,490.167 362.833,490.167 361.5,489.5 Z"/></g>
<g><path style="opacity:0.004" fill="#fefffe" d="M 151.5,492.5 C 152.833,493.167 152.833,493.167 151.5,492.5 Z"/></g>
</svg>
